<?xml version="1.0" standalone="no"?>
<!DOCTYPE svg PUBLIC "-//W3C//DTD SVG 20010904//EN"
 "http://www.w3.org/TR/2001/REC-SVG-20010904/DTD/svg10.dtd">
<svg version="1.0" xmlns="http://www.w3.org/2000/svg"
 width="400.000000pt" height="400.000000pt" viewBox="0 0 400.000000 400.000000"
 preserveAspectRatio="xMidYMid meet">

<g transform="translate(0.000000,400.000000) scale(0.100000,-0.100000)"
fill="#c80a49" stroke="none">
<path d="M0 2000 l0 -2000 2000 0 2000 0 0 2000 0 2000 -2000 0 -2000 0 0
-2000z m2215 1010 c122 -14 250 -42 368 -80 l97 -31 0 -209 0 -210 -64 0 c-35
0 -80 7 -99 15 -148 62 -349 92 -507 75 -118 -12 -187 -38 -230 -87 -40 -45
-39 -77 5 -119 47 -44 146 -80 420 -154 268 -73 336 -103 434 -196 118 -111
160 -205 168 -379 10 -194 -29 -298 -156 -426 -87 -87 -190 -144 -326 -181
-112 -30 -445 -33 -575 -4 -111 24 -264 78 -362 127 l-78 39 0 215 0 215 55 0
c45 0 71 -8 136 -40 209 -106 477 -154 664 -119 108 20 168 65 181 137 6 32 4
39 -25 63 -46 38 -162 79 -431 154 -135 37 -261 78 -298 97 -86 43 -200 151
-240 226 -83 156 -81 357 4 532 66 133 219 259 378 310 117 38 308 49 481 30z"/>
</g>
</svg>
