<?xml version="1.0" standalone="no"?>
<!DOCTYPE svg PUBLIC "-//W3C//DTD SVG 20010904//EN"
 "http://www.w3.org/TR/2001/REC-SVG-20010904/DTD/svg10.dtd">
<svg version="1.0" xmlns="http://www.w3.org/2000/svg"
 width="128.000000pt" height="128.000000pt" viewBox="0 0 128.000000 128.000000"
 preserveAspectRatio="xMidYMid meet">

<g transform="translate(0.000000,128.000000) scale(0.100000,-0.100000)"
fill="#000000" stroke="none">
<path d="M540 1263 c-54 -9 -158 -46 -210 -76 -30 -17 -89 -65 -130 -106 -123
-124 -180 -265 -180 -443 0 -108 17 -185 64 -283 132 -279 459 -418 751 -320
106 35 162 71 246 154 122 123 176 242 186 411 17 309 -176 574 -473 650 -72
19 -186 24 -254 13z m268 -318 l52 -16 0 -69 c0 -80 1 -80 -87 -54 -74 21
-180 16 -199 -11 -22 -30 5 -49 114 -80 121 -34 144 -46 178 -91 33 -42 45
-134 24 -184 -18 -43 -82 -95 -135 -110 -65 -18 -207 -8 -277 20 l-58 23 0 73
c0 87 2 88 95 49 99 -41 235 -30 235 19 0 16 -53 40 -146 65 -39 10 -84 26
-100 34 -83 43 -116 136 -79 225 26 60 71 99 145 123 37 12 177 3 238 -16z"/>
</g>
</svg>
